<svg width="220" height="220" viewBox="0 0 220 220" fill="none" xmlns="http://www.w3.org/2000/svg">
  <defs>
    <linearGradient id="bg" x1="28" y1="22" x2="188" y2="198" gradientUnits="userSpaceOnUse">
      <stop stop-color="#22C88E"/>
      <stop offset="1" stop-color="#149E79"/>
    </linearGradient>
    <linearGradient id="glow" x1="62" y1="54" x2="152" y2="162" gradientUnits="userSpaceOnUse">
      <stop stop-color="#E7FFF4"/>
      <stop offset="1" stop-color="#BCF4DE"/>
    </linearGradient>
    <filter id="shadow" x="8" y="8" width="204" height="204" filterUnits="userSpaceOnUse" color-interpolation-filters="sRGB">
      <feDropShadow dx="0" dy="8" stdDeviation="10" flood-color="#0E3A2E" flood-opacity="0.22"/>
    </filter>
  </defs>

  <g filter="url(#shadow)">
    <rect x="20" y="20" width="180" height="180" rx="36" fill="url(#bg)"/>
  </g>

  <path d="M84 64L58 84V136L84 156" stroke="url(#glow)" stroke-width="14" stroke-linecap="round" stroke-linejoin="round"/>
  <path d="M136 64L162 84V136L136 156" stroke="url(#glow)" stroke-width="14" stroke-linecap="round" stroke-linejoin="round"/>
  <rect x="98" y="60" width="24" height="100" rx="12" fill="#F0FFF9" fill-opacity="0.95"/>

  <circle cx="110" cy="92" r="7" fill="#18A97C"/>
  <circle cx="110" cy="122" r="7" fill="#18A97C"/>
  <circle cx="110" cy="152" r="7" fill="#18A97C"/>

  <path d="M153 48L156.6 56.4L165 60L156.6 63.6L153 72L149.4 63.6L141 60L149.4 56.4L153 48Z" fill="#F7FFF8"/>
</svg>
